PathFileType	4	(X/Y/Z)	C:\Users\dbl\Desktop\20210112\20210112\bx_n_5_502.trc
DataRate	CameraRate	NumFrames	NumMarkers	Units	OrigDataRate	OrigDataStartFrame	OrigNumFrames
50.00	50.00	       5	43	mm	50.00	1	       489
Frame#	Time	Top.Head			R.Acromium			L.Acromium			Sternum			R.ASIS			L.ASIS			V.Sacral			R.Thigh.Upper			R.Thigh.Front			R.Thigh.Rear			R.Knee.Lat			R.Knee.Med			R.Shank.Upper			R.Shank.Front			R.Shank.Rear			R.Ankle.Lat			R.Midfoot.Lat			R.Toe.Lat			R.Toe.Tip			R.Toe.Med			R.Ankle.Med			R.Midfoot.Sup			R.Heel			L.Thigh.Upper			L.Thigh.Front			L.Thigh.Rear			L.Knee.Lat			L.Knee.Med			L.Shank.Upper			L.Shank.Front			L.Shank.Rear			L.Ankle.Lat			L.Midfoot.Lat			L.Toe.Lat			L.Toe.Tip			L.Toe.Med			L.Ankle.Med			L.Midfoot.Sup			L.Heel			origin1 front left			origin2 front right			origin 3 back right			origin 4 back leftt			
		X1	Y1	Z1	X2	Y2	Z2	X3	Y3	Z3	X4	Y4	Z4	X5	Y5	Z5	X6	Y6	Z6	X7	Y7	Z7	X8	Y8	Z8	X9	Y9	Z9	X10	Y10	Z10	X11	Y11	Z11	X12	Y12	Z12	X13	Y13	Z13	X14	Y14	Z14	X15	Y15	Z15	X16	Y16	Z16	X17	Y17	Z17	X18	Y18	Z18	X19	Y19	Z19	X20	Y20	Z20	X21	Y21	Z21	X22	Y22	Z22	X23	Y23	Z23	X24	Y24	Z24	X25	Y25	Z25	X26	Y26	Z26	X27	Y27	Z27	X28	Y28	Z28	X29	Y29	Z29	X30	Y30	Z30	X31	Y31	Z31	X32	Y32	Z32	X33	Y33	Z33	X34	Y34	Z34	X35	Y35	Z35	X36	Y36	Z36	X37	Y37	Z37	X38	Y38	Z38	X39	Y39	Z39	X40	Y40	Z40	X41	Y41	Z41	X42	Y42	Z42	X43	Y43	Z43	

1	0.000	-675.33594	125.11938	1847.37207	-675.69836	-66.15495	1534.90454	-705.11505	296.84259	1526.37622	-586.97443	113.87363	1356.13123	-572.27283	-0.14977	1053.80371	-582.36926	248.45743	1063.40125	-777.19812	98.82324	1050.95715	-638.20239	-67.73441	870.72906	-566.73590	2.31239	801.49963	-662.10626	-57.27676	755.34760	-691.51721	-32.21441	615.28632	-683.69250	77.86406	571.84412	-702.03729	-30.02449	568.06885	-656.79883	20.38776	517.60535	-747.98114	-44.05283	489.40594	-757.23193	-18.35580	207.79796	-648.24182	-65.48021	163.50711	-605.99438	-71.35918	159.03871	-547.51532	-26.27423	163.90320	-599.04694	28.49960	165.99886	-718.78607	72.21507	215.10925	-674.53833	55.56191	156.51822	-793.54169	40.11960	175.03810	-666.34698	291.11374	871.51477	-572.18384	227.01259	790.33228	-677.72357	273.75070	741.69873	-711.37390	253.77757	642.24072	-678.94830	146.77710	576.11047	-716.39502	249.53816	575.91290	-664.69366	208.07938	533.00464	-758.82245	259.03815	503.04840	-767.43658	226.79425	206.20766	-660.42242	297.57083	158.30324	-624.03717	306.36212	158.97414	-555.35895	255.52452	164.33752	-591.58063	217.27710	173.72156	-711.51563	152.85544	216.33163	-675.24518	171.27591	157.51633	-795.69305	177.92072	184.52455	-528.02130	304.38251	146.93414	-517.20099	-72.99355	143.72585	-876.09723	-78.65971	141.48227	-882.55273	296.27115	144.72351	
2	0.020	-675.34131	125.23305	1847.36304	-675.83002	-66.02369	1534.93262	-705.18951	296.81949	1526.31396	-587.16260	113.98336	1356.19446	-572.41510	-0.04684	1053.91541	-582.63745	248.28085	1063.30298	-777.35962	98.77751	1050.98999	-638.26929	-67.70154	870.69489	-566.83282	2.24824	801.51160	-662.14288	-57.30099	755.30139	-691.58844	-32.14063	615.20819	-683.65088	77.82525	571.91852	-702.04321	-30.01494	568.08417	-656.81451	20.33203	517.59930	-747.90350	-44.00029	489.43613	-757.18756	-18.29685	207.83548	-648.21136	-65.41861	163.52280	-606.03571	-71.38580	159.00330	-547.47736	-26.31423	163.95053	-599.08850	28.55247	166.13902	-718.76648	72.27465	215.17781	-674.48859	55.44234	156.58189	-793.57324	39.98147	175.12590	-666.38733	291.06781	871.50012	-572.15411	226.98764	790.47150	-677.78540	273.93051	741.82251	-711.34113	253.80655	642.22992	-678.97925	146.74208	576.08734	-716.41010	249.51065	575.91144	-664.61566	208.10612	533.03064	-758.82727	258.99542	503.04160	-767.43207	226.78680	206.12747	-660.36920	297.56348	158.22269	-623.96588	306.33575	158.98222	-555.32275	255.51303	164.35582	-591.62195	217.27728	173.76732	-711.62079	152.94241	216.36839	-675.11957	171.14882	157.61789	-795.58441	177.97859	184.51186	-528.06702	304.47812	146.87784	-517.20911	-72.90377	143.71663	-876.02655	-78.70513	141.46300	-882.50549	296.21320	144.76022	
3	0.040	-675.29388	125.35568	1847.34985	-675.98230	-65.89333	1534.96423	-705.27393	296.82257	1526.24597	-587.33917	114.08095	1356.23865	-572.56226	0.03469	1054.01135	-582.85406	248.13766	1063.22742	-777.52423	98.74200	1051.02100	-638.33734	-67.67712	870.66998	-566.92676	2.18789	801.52161	-662.17535	-57.31655	755.27106	-691.64142	-32.09677	615.15723	-683.62732	77.77711	571.97009	-702.03741	-30.01777	568.10504	-656.82990	20.27936	517.58752	-747.83710	-43.97033	489.46115	-757.15594	-18.25763	207.86310	-648.18909	-65.37746	163.53168	-606.06451	-71.39925	158.97951	-547.44757	-26.34786	163.98610	-599.11243	28.59255	166.24371	-718.74347	72.32874	215.24541	-674.44812	55.35078	156.62920	-793.59094	39.86792	175.19406	-666.44318	291.01242	871.47186	-572.13446	226.96875	790.58325	-677.82214	274.03262	741.89551	-711.31525	253.83150	642.22473	-679.01257	146.70749	576.06989	-716.41321	249.47758	575.89478	-664.54510	208.11646	533.04608	-758.82452	258.96030	503.03830	-767.43439	226.78627	206.07195	-660.32709	297.54861	158.17007	-623.90729	306.31714	158.98866	-555.29181	255.50655	164.36250	-591.65826	217.28598	173.79762	-711.66473	152.98485	216.39445	-675.01385	171.04652	157.70026	-795.49780	178.01891	184.50276	-528.10425	304.54718	146.82407	-517.22571	-72.82371	143.70416	-875.96875	-78.73064	141.44386	-882.47083	296.17691	144.78941	
4	0.060	-675.15259	125.49533	1847.33020	-676.16357	-65.76158	1535.00391	-705.36987	296.87213	1526.16992	-587.49487	114.15617	1356.25562	-572.72437	0.07747	1054.09045	-582.99347	248.04509	1063.18909	-777.69110	98.72361	1051.04834	-638.41174	-67.66640	870.66217	-567.01843	2.13408	801.53204	-662.20813	-57.32397	755.26642	-691.66901	-32.09490	615.14398	-683.62701	77.72205	571.98633	-702.01367	-30.03312	568.12756	-656.84198	20.23946	517.57013	-747.78809	-43.96963	489.47943	-757.14423	-18.24994	207.88184	-648.18048	-65.36679	163.53076	-606.07660	-71.39541	158.97252	-547.43030	-26.37213	164.00475	-599.10938	28.61238	166.29576	-718.72473	72.37017	215.30490	-674.42169	55.29969	156.65286	-793.58826	39.79037	175.23659	-666.51105	290.94577	871.43085	-572.12646	226.96019	790.65802	-677.82220	274.02225	741.89667	-711.29901	253.84711	642.22699	-679.04480	146.67763	576.06134	-716.39899	249.44199	575.86359	-664.48456	208.10202	533.04718	-758.80975	258.93900	503.04221	-767.44385	226.79527	206.05069	-660.30621	297.53027	158.15720	-623.86963	306.30856	158.99294	-555.26685	255.50645	164.34805	-591.68719	217.30330	173.80592	-711.63580	152.97217	216.40439	-674.94501	170.98390	157.75385	-795.44733	178.03529	184.50066	-528.12836	304.57733	146.77390	-517.25214	-72.76068	143.68336	-875.93207	-78.72890	141.42854	-882.45575	296.17242	144.80717	
5	0.080	-674.89526	125.65745	1847.30481	-676.36548	-65.62408	1535.05444	-705.46893	296.97516	1526.08618	-587.62463	114.20464	1356.24927	-572.91803	0.07333	1054.16528	-583.06085	248.00203	1063.19141	-777.85425	98.72523	1051.06970	-638.49963	-67.66998	870.67456	-567.11444	2.08946	801.54883	-662.25690	-57.33649	755.28943	-691.67798	-32.12430	615.15796	-683.64093	77.67624	571.96875	-701.97668	-30.04791	568.13879	-656.84534	20.22491	517.55463	-747.75818	-43.98543	489.49127	-757.15045	-18.27075	207.90097	-648.18604	-65.38239	163.52222	-606.07629	-71.38056	158.97887	-547.42578	-26.38763	164.00870	-599.08344	28.61195	166.30040	-718.72516	72.38855	215.34325	-674.40900	55.28363	156.65460	-793.56830	39.74637	175.26125	-666.56927	290.87729	871.39246	-572.12378	226.95996	790.70465	-677.79181	273.92496	741.84674	-711.29144	253.84758	642.23315	-679.06635	146.66003	576.06122	-716.37219	249.41690	575.83673	-664.43317	208.06577	533.03754	-758.78418	258.93350	503.05447	-767.45392	226.81172	206.05548	-660.30975	297.51959	158.17381	-623.85510	306.30576	158.99597	-555.24420	255.50960	164.31000	-591.70886	217.31961	173.79771	-711.57074	152.93018	216.40016	-674.92267	170.96342	157.77953	-795.43713	178.03336	184.50952	-528.14008	304.57483	146.72842	-517.28156	-72.72118	143.65013	-875.91797	-78.70951	141.42273	-882.45770	296.19373	144.81494	
